<?xml version="1.0" encoding="UTF-8" standalone="no"?>
<!-- Uploaded to: SVG Repo, www.svgrepo.com, Generator: SVG Repo Mixer Tools -->

<svg
   fill="#000000"
   height="78.852173"
   width="342.6351"
   version="1.1"
   id="Capa_1"
   viewBox="0 0 191.24266 44.011537"
   xml:space="preserve"
   sodipodi:docname="logo-text-darkmode.svg"
   inkscape:version="1.3 (0e150ed6c4, 2023-07-21)"
   xmlns:inkscape="http://www.inkscape.org/namespaces/inkscape"
   xmlns:sodipodi="http://sodipodi.sourceforge.net/DTD/sodipodi-0.dtd"
   xmlns="http://www.w3.org/2000/svg"
   xmlns:svg="http://www.w3.org/2000/svg"><defs
   id="defs13" /><sodipodi:namedview
   id="namedview13"
   pagecolor="#ffffff"
   bordercolor="#000000"
   borderopacity="0.25"
   inkscape:showpageshadow="2"
   inkscape:pageopacity="0.0"
   inkscape:pagecheckerboard="0"
   inkscape:deskcolor="#d1d1d1"
   inkscape:zoom="1.4513367"
   inkscape:cx="32.03943"
   inkscape:cy="78.203769"
   inkscape:window-width="1920"
   inkscape:window-height="1017"
   inkscape:window-x="1912"
   inkscape:window-y="32"
   inkscape:window-maximized="1"
   inkscape:current-layer="Capa_1" />&#10;<g
   id="g13"
   inkscape:label="spiral"
   transform="matrix(0.14588429,0,0,0.14588429,-42.484497,-4.7958289)"
   style="display:inline;stroke-width:0.99969;stroke-dasharray:none">&#10;	<path
   d="m 442.06451,32.874197 c -83.175,0 -150.844,67.668003 -150.844,150.844003 0,83.176 67.668,150.844 150.844,150.844 83.176,0 150.844,-67.668 150.844,-150.844 0,-83.176 -67.669,-150.844003 -150.844,-150.844003 z m 120.696,156.857003 c -1.363,27.655 -13.112,53.884 -32.649,73.505 -0.075,0.076 -0.151,0.151 -0.226,0.227 -34,34 -89.32,33.999 -123.321,0 -26.03,-26.03 -26.03,-68.384 0,-94.414 19.656,-19.654 51.635,-19.653 71.289,0 14.554,14.554 14.554,38.234 0,52.788 -9.618,9.617 -24.775,10.403 -35.298,2.355 -4.045,-3.094 -7.897,-9.612 -8.091,-14.701 -0.193,-5.059 1.629,-9.855 5.09,-13.483 5.416,-5.676 6.274,-14.498 1.24,-20.516 -5.734,-6.857 -15.963,-7.195 -22.142,-1.016 -9.159,9.158 -14.203,21.335 -14.203,34.287 0,12.952 5.044,25.128 14.203,34.287 22.172,22.17 58.245,22.169 80.414,0 26.251,-26.251 26.25,-68.964 0,-95.214 -31.351,-31.35 -82.364,-31.351 -113.714,0 -37.727,37.727 -37.727,99.113 0,136.839 4.524,4.523 9.332,8.592 14.362,12.22 -46.93,-17.619 -80.09,-63.628 -78.433,-117.003 1.993,-64.217 54.719,-116.053003 118.96,-117.005003 67.465,-1 122.668,53.590003 122.668,120.830003 -10e-4,2.017 -0.05,4.022 -0.149,6.014 z"
   id="path1"
   inkscape:label="path1"
   style="mix-blend-mode:normal;fill:#6741d9;fill-opacity:1;stroke-width:0.998585;stroke-dasharray:none" />&#10;	&#10;	&#10;	&#10;	&#10;	&#10;	&#10;	&#10;	&#10;	&#10;	&#10;	&#10;	&#10;</g>&#10;<path
   id="text13"
   style="font-weight:bold;font-size:45.7853px;font-family:Satoshi;-inkscape-font-specification:'Satoshi, Bold';stroke-width:1.07332731;stroke-dasharray:none;fill:#ffffff;fill-opacity:1"
   inkscape:label="text"
   d="M 70.049233 3.7141126 C 60.480114 3.7141126 53.841006 10.856876 53.841006 21.021202 C 53.841006 31.231314 60.434328 38.328291 70.003447 38.328291 C 73.162629 38.328291 76.001442 37.549909 78.382275 36.176351 L 82.045151 40.297086 L 85.799599 36.954712 L 82.228295 32.971334 C 84.838055 29.949507 86.303245 25.828654 86.303245 21.021202 C 86.303245 10.81109 79.618351 3.7141126 70.049233 3.7141126 z M 143.30566 3.7141126 L 143.30566 37.778859 L 148.47947 37.778859 L 148.84576 34.253341 C 150.17353 36.863101 153.05812 38.374077 156.44623 38.374077 C 162.94773 38.374077 167.20484 33.566446 167.20484 26.607087 C 167.20484 19.464588 163.26824 14.428025 156.81252 14.428025 C 153.37862 14.428025 150.35668 15.938999 148.89155 18.457188 L 148.89155 3.7141126 L 143.30566 3.7141126 z M 70.049233 9.3457844 C 76.184456 9.3457844 80.122141 13.878702 80.122141 21.021202 C 80.122141 23.951459 79.435333 26.469758 78.199132 28.392739 L 73.757894 23.402071 L 70.049233 26.744445 L 74.49047 31.735114 C 73.162697 32.376107 71.697502 32.696619 70.049233 32.696619 C 63.914008 32.696619 59.976324 28.163701 59.976324 21.021202 C 59.976324 13.878702 63.914008 9.3457844 70.049233 9.3457844 z M 127.96737 14.473811 C 121.83213 14.473811 117.80289 17.678901 117.80289 22.577924 L 122.56463 22.577924 C 122.56463 20.19709 124.39612 18.823476 127.69265 18.823476 C 130.53134 18.823476 132.36282 20.059743 132.36282 23.127355 L 132.36282 23.631001 L 125.5865 24.134646 C 120.22962 24.546714 117.20767 27.156582 117.20767 31.32304 C 117.20767 35.581069 120.13804 38.374077 124.9455 38.374077 C 128.47095 38.374077 131.53869 36.771533 132.50018 34.436485 L 132.91225 37.778859 L 137.81135 37.778859 L 137.81135 24.043074 C 137.81135 17.770495 134.0568 14.473811 127.96737 14.473811 z M 181.39848 14.473811 C 175.26326 14.473811 171.234 17.678901 171.234 22.577924 L 175.99574 22.577924 C 175.99574 20.19709 177.82722 18.823476 181.12377 18.823476 C 183.96244 18.823476 185.79393 20.059743 185.79393 23.127355 L 185.79393 23.631001 L 179.01761 24.134646 C 173.66074 24.546714 170.63878 27.156582 170.63878 31.32304 C 170.63878 35.581069 173.56915 38.374077 178.37661 38.374077 C 181.90208 38.374077 184.9698 36.771533 185.93129 34.436485 L 186.34336 37.778859 L 191.24246 37.778859 L 191.24246 24.043074 C 191.24246 17.770495 187.48792 14.473811 181.39848 14.473811 z M 101.68623 14.519597 C 94.681091 14.519597 89.598743 19.373015 89.598743 26.423944 C 89.598743 33.474873 94.681091 38.328291 101.68623 38.328291 C 108.69138 38.328291 113.77372 33.474873 113.77372 26.423944 C 113.77372 19.373015 108.69138 14.519597 101.68623 14.519597 z M 155.30158 19.464479 C 159.23911 19.464479 161.57426 22.349055 161.57426 26.378158 C 161.57426 30.40726 159.23911 33.24605 155.30158 33.24605 C 151.45561 33.24605 148.93733 30.453045 148.93733 26.378158 C 148.93733 22.30327 151.45561 19.464479 155.30158 19.464479 z M 101.68623 19.510265 C 105.5322 19.510265 108.18784 22.303271 108.18784 26.423944 C 108.18784 30.544617 105.5322 33.337622 101.68623 33.337622 C 97.840273 33.337622 95.184629 30.544617 95.184629 26.423944 C 95.184629 22.303271 97.840273 19.510265 101.68623 19.510265 z M 132.40861 27.431235 L 132.40861 28.621669 C 132.40861 32.101349 130.21083 34.161769 126.77693 34.161769 C 124.25875 34.161769 122.88513 33.154446 122.88513 31.094111 C 122.88513 29.2627 124.21298 28.118019 127.69265 27.797522 L 132.40861 27.431235 z M 185.83972 27.431235 L 185.83972 28.621669 C 185.83972 32.101349 183.64194 34.161769 180.20805 34.161769 C 177.68986 34.161769 176.31624 33.154446 176.31624 31.094111 C 176.31624 29.2627 177.64408 28.118019 181.12377 27.797522 L 185.83972 27.431235 z " /></svg>
